<svg width="120" height="120" viewBox="0 0 120 120" xmlns="http://www.w3.org/2000/svg" role="img" aria-label="SVIL logo">
  <rect width="120" height="120" rx="24" fill="#000000"/>
  <circle cx="60" cy="60" r="36" fill="none" stroke="#FFFFFF" stroke-width="4"/>
  <path d="M38 62 C38 48, 48 38, 60 38 C72 38, 82 48, 82 62 C82 76, 72 84, 60 84 C48 84, 38 76, 38 62Z" fill="none" stroke="#FFD400" stroke-width="4" stroke-linecap="round" stroke-linejoin="round"/>
  <circle cx="34" cy="34" r="4" fill="#FFD400"/>
  <circle cx="86" cy="34" r="4" fill="#FFD400"/>
  <circle cx="34" cy="86" r="4" fill="#FFD400"/>
  <circle cx="86" cy="86" r="4" fill="#FFD400"/>
  <line x1="38" y1="38" x2="34" y2="34" stroke="#FFFFFF" stroke-width="3" stroke-linecap="round"/>
  <line x1="82" y1="38" x2="86" y2="34" stroke="#FFFFFF" stroke-width="3" stroke-linecap="round"/>
  <line x1="38" y1="82" x2="34" y2="86" stroke="#FFFFFF" stroke-width="3" stroke-linecap="round"/>
  <line x1="82" y1="82" x2="86" y2="86" stroke="#FFFFFF" stroke-width="3" stroke-linecap="round"/>
</svg>
